<?xml version="1.0" standalone="no"?>
<!DOCTYPE svg PUBLIC "-//W3C//DTD SVG 20010904//EN"
 "http://www.w3.org/TR/2001/REC-SVG-20010904/DTD/svg10.dtd">
<svg version="1.0" xmlns="http://www.w3.org/2000/svg"
 width="700.000000pt" height="700.000000pt" viewBox="0 0 700.000000 700.000000"
 preserveAspectRatio="xMidYMid meet">
<metadata>
Created by potrace 1.14, written by Peter Selinger 2001-2017
</metadata>
<g transform="translate(0.000000,700.000000) scale(0.100000,-0.100000)"
fill="#000000" stroke="none">
<path d="M3577 6295 c-47 -16 -79 -44 -93 -83 -8 -20 -11 -169 -10 -468 l1
-439 23 -33 c30 -42 74 -64 127 -64 49 0 86 21 118 66 22 31 22 34 24 466 1
300 -1 444 -9 465 -29 77 -107 116 -181 90z"/>
<path d="M1800 5371 c-63 -33 -93 -122 -62 -184 20 -43 475 -495 514 -511 75
-31 156 1 186 73 20 47 21 67 8 111 -9 29 -467 494 -508 516 -37 19 -97 18
-138 -5z"/>
<path d="M5305 5375 c-44 -20 -491 -473 -508 -515 -44 -108 59 -221 173 -190
36 10 77 47 275 244 128 128 240 247 250 265 38 74 -3 171 -84 199 -42 15 -68
14 -106 -3z"/>
<path d="M3537 4954 c-1 -1 -37 -5 -81 -8 -43 -3 -81 -8 -85 -10 -3 -3 -26 -7
-50 -11 -76 -11 -252 -74 -357 -126 -320 -161 -576 -444 -705 -777 -29 -76
-77 -253 -83 -309 -2 -15 -4 -31 -5 -35 0 -3 -47 -6 -103 -6 -57 0 -141 -6
-188 -15 -68 -11 -172 -14 -510 -12 -451 2 -467 0 -517 -47 -12 -11 -27 -42
-33 -69 -11 -43 -10 -53 9 -92 14 -28 34 -51 60 -65 36 -20 52 -22 225 -22
l186 0 -51 -62 c-132 -163 -217 -368 -235 -564 l-7 -75 -46 -24 c-135 -70
-255 -200 -319 -346 -78 -179 -66 -431 29 -609 93 -174 275 -315 460 -356 80
-18 229 -20 1232 -19 731 0 1107 -3 1108 -10 0 -5 1 -114 1 -242 1 -216 3
-235 22 -270 54 -95 183 -101 247 -12 24 33 24 38 26 279 1 135 2 270 2 301
l1 56 61 48 c123 97 211 231 250 384 21 80 30 218 18 262 -6 23 -3 27 30 39
65 22 228 107 300 155 250 168 451 422 558 705 29 75 27 69 53 180 28 118 31
146 34 300 5 192 -11 298 -76 498 -168 518 -660 918 -1205 978 -56 6 -251 13
-256 8z"/>
<path d="M5433 3635 c-69 -25 -103 -70 -103 -135 0 -57 30 -107 80 -133 32
-16 74 -17 466 -17 l431 1 36 25 c67 45 85 119 47 193 -38 75 -40 75 -512 76
-259 0 -428 -4 -445 -10z"/>
<path d="M4856 2317 c-72 -41 -96 -129 -55 -197 33 -54 474 -489 512 -505 90
-37 197 28 199 121 0 21 0 48 -1 58 0 11 -114 133 -253 273 -254 255 -277 273
-343 273 -11 0 -38 -10 -59 -23z"/>
</g>
</svg>
